<mxfile host="app.diagrams.net" agent="Mozilla/5.0 (Windows NT 10.0; Win64; x64) AppleWebKit/537.36 (KHTML, like Gecko) Chrome/136.0.0.0 Safari/537.36" version="26.2.13">
  <diagram name="Page-1" id="_5ZA-SbzwZC6RXCUGsCD">
    <mxGraphModel dx="694" dy="421" grid="1" gridSize="10" guides="1" tooltips="1" connect="1" arrows="1" fold="1" page="1" pageScale="1" pageWidth="850" pageHeight="1100" math="0" shadow="1">
      <root>
        <mxCell id="0" />
        <mxCell id="1" parent="0" />
        <mxCell id="WNiRMjTejuKCVmON-htT-6" style="edgeStyle=orthogonalEdgeStyle;rounded=0;orthogonalLoop=1;jettySize=auto;html=1;exitX=1;exitY=0.5;exitDx=0;exitDy=0;entryX=0;entryY=0.5;entryDx=0;entryDy=0;" edge="1" parent="1" source="WNiRMjTejuKCVmON-htT-1" target="WNiRMjTejuKCVmON-htT-2">
          <mxGeometry relative="1" as="geometry" />
        </mxCell>
        <mxCell id="WNiRMjTejuKCVmON-htT-1" value="中央管理节点" style="rounded=0;whiteSpace=wrap;html=1;" vertex="1" parent="1">
          <mxGeometry x="120" y="180" width="120" height="60" as="geometry" />
        </mxCell>
        <mxCell id="WNiRMjTejuKCVmON-htT-7" style="edgeStyle=orthogonalEdgeStyle;rounded=0;orthogonalLoop=1;jettySize=auto;html=1;exitX=1;exitY=0.5;exitDx=0;exitDy=0;" edge="1" parent="1" source="WNiRMjTejuKCVmON-htT-2" target="WNiRMjTejuKCVmON-htT-3">
          <mxGeometry relative="1" as="geometry" />
        </mxCell>
        <mxCell id="WNiRMjTejuKCVmON-htT-15" style="edgeStyle=orthogonalEdgeStyle;rounded=0;orthogonalLoop=1;jettySize=auto;html=1;exitX=1;exitY=0.5;exitDx=0;exitDy=0;entryX=0;entryY=0.5;entryDx=0;entryDy=0;" edge="1" parent="1" source="WNiRMjTejuKCVmON-htT-2" target="WNiRMjTejuKCVmON-htT-12">
          <mxGeometry relative="1" as="geometry" />
        </mxCell>
        <mxCell id="WNiRMjTejuKCVmON-htT-16" style="edgeStyle=orthogonalEdgeStyle;rounded=0;orthogonalLoop=1;jettySize=auto;html=1;exitX=1;exitY=0.5;exitDx=0;exitDy=0;entryX=0;entryY=0.5;entryDx=0;entryDy=0;" edge="1" parent="1" source="WNiRMjTejuKCVmON-htT-2" target="WNiRMjTejuKCVmON-htT-13">
          <mxGeometry relative="1" as="geometry" />
        </mxCell>
        <mxCell id="WNiRMjTejuKCVmON-htT-17" style="edgeStyle=orthogonalEdgeStyle;rounded=0;orthogonalLoop=1;jettySize=auto;html=1;exitX=1;exitY=0.5;exitDx=0;exitDy=0;entryX=0;entryY=0.5;entryDx=0;entryDy=0;" edge="1" parent="1" source="WNiRMjTejuKCVmON-htT-2" target="WNiRMjTejuKCVmON-htT-14">
          <mxGeometry relative="1" as="geometry" />
        </mxCell>
        <mxCell id="WNiRMjTejuKCVmON-htT-2" value="中继节点" style="rounded=0;whiteSpace=wrap;html=1;" vertex="1" parent="1">
          <mxGeometry x="305" y="180" width="120" height="60" as="geometry" />
        </mxCell>
        <mxCell id="WNiRMjTejuKCVmON-htT-3" value="监控子节点1（本向车道）" style="rounded=0;whiteSpace=wrap;html=1;" vertex="1" parent="1">
          <mxGeometry x="520" y="180" width="170" height="60" as="geometry" />
        </mxCell>
        <mxCell id="WNiRMjTejuKCVmON-htT-12" value="监控子节点2（本向车道）" style="rounded=0;whiteSpace=wrap;html=1;" vertex="1" parent="1">
          <mxGeometry x="520" y="280" width="170" height="60" as="geometry" />
        </mxCell>
        <mxCell id="WNiRMjTejuKCVmON-htT-13" value="监控子节点3（对向车道）" style="rounded=0;whiteSpace=wrap;html=1;" vertex="1" parent="1">
          <mxGeometry x="520" y="380" width="170" height="60" as="geometry" />
        </mxCell>
        <mxCell id="WNiRMjTejuKCVmON-htT-14" value="监控子节点4（对向车道）" style="rounded=0;whiteSpace=wrap;html=1;" vertex="1" parent="1">
          <mxGeometry x="520" y="480" width="170" height="60" as="geometry" />
        </mxCell>
      </root>
    </mxGraphModel>
  </diagram>
</mxfile>
